# Blender 4.2.3 LTS
# www.blender.org
o Cube
v -1.000000 1.000000 1.000000
v -1.000000 -1.000000 1.000000
v -1.000000 1.000000 -1.000000
v -1.000000 -1.000000 -1.000000
v 1.000000 1.000000 1.000000
v 1.000000 -1.000000 1.000000
v 1.000000 1.000000 -1.000000
v 1.000000 -1.000000 -1.000000
vn -0.0000 -1.0000 -0.0000
vn -0.0000 -0.0000 1.0000
vn -1.0000 -0.0000 -0.0000
vn -0.0000 1.0000 -0.0000
vn 1.0000 -0.0000 -0.0000
vn -0.0000 -0.0000 -1.0000
vt 1.000000 0.000000
vt 0.000000 1.000000
vt 1.000000 1.000000
vt 0.000000 0.000000
s 0
f 3/1/1 5/2/1 1/3/1
f 8/4/2 3/3/2 4/1/2
f 6/1/3 7/2/3 8/4/3
f 8/4/4 2/3/4 6/2/4
f 4/4/5 1/3/5 2/1/5
f 2/1/6 5/2/6 6/4/6
f 3/1/1 7/4/1 5/2/1
f 8/4/2 7/2/2 3/3/2
f 6/1/3 5/3/3 7/2/3
f 8/4/4 4/1/4 2/3/4
f 4/4/5 3/2/5 1/3/5
f 2/1/6 1/3/6 5/2/6
